<?xml version="1.0" encoding="UTF-8"?>
<svg version="1.1" xmlns="http://www.w3.org/2000/svg" width="1000" height="1000">
<path d="M0 0 C1.87824463 -0.01052147 1.87824463 -0.01052147 3.79443359 -0.02125549 C7.81351653 -0.03866658 11.83244995 -0.04568939 15.8515625 -0.046875 C16.53603706 -0.04731686 17.22051163 -0.04775871 17.92572784 -0.04821396 C38.26281397 -0.05510132 58.31153058 0.23128349 78.4765625 3.203125 C79.71712402 3.37473145 80.95768555 3.54633789 82.23583984 3.72314453 C143.20912845 12.24645621 202.60191161 32.53775495 255.4765625 64.203125 C256.38229004 64.74324219 257.28801758 65.28335938 258.22119141 65.83984375 C284.30943756 81.47700571 308.63094043 99.58139598 331.1171875 120.0625 C332.61442416 121.42092002 334.12360658 122.7663792 335.6484375 124.09375 C341.7236175 129.41476972 347.44576749 135.06537913 353.1640625 140.765625 C353.97222412 141.56919434 354.78038574 142.37276367 355.61303711 143.20068359 C360.44068448 148.04073626 365.03452396 153.00873377 369.4765625 158.203125 C370.42594453 159.28615558 371.37641294 160.36823511 372.328125 161.44921875 C380.1291222 170.39247004 387.39446536 179.68327335 394.4765625 189.203125 C395.01958008 189.93047852 395.56259766 190.65783203 396.12207031 191.40722656 C409.33186207 209.16941238 420.72360755 227.87023225 431.4765625 247.203125 C431.87439941 247.91082031 432.27223633 248.61851562 432.68212891 249.34765625 C460.28453014 298.64193154 476.76164439 355.1269204 483.7265625 411.015625 C483.85118866 412.01456787 483.85118866 412.01456787 483.97833252 413.03369141 C485.60934054 426.26539256 486.62951987 439.38708664 486.6796875 452.7265625 C486.68670181 453.9787709 486.69371613 455.23097931 486.70094299 456.52113342 C486.71835341 460.54017058 486.72537678 464.55905823 486.7265625 468.578125 C486.72700436 469.26245228 486.72744621 469.94677956 486.72790146 470.65184402 C486.73478758 490.97979018 486.50282601 511.05242456 483.4765625 531.203125 C483.29963867 532.42725098 483.12271484 533.65137695 482.94042969 534.91259766 C476.27351619 580.20500565 463.82842618 623.86252534 444.71679688 665.49658203 C443.61502067 667.90097001 442.53426848 670.31329689 441.4609375 672.73046875 C435.9438887 684.99313472 429.25738949 696.60358265 422.4765625 708.203125 C422.0031543 709.01458984 421.52974609 709.82605469 421.04199219 710.66210938 C405.61938174 736.92613669 387.11278637 761.34158901 366.6171875 783.84375 C365.25876748 785.34098666 363.9133083 786.85016908 362.5859375 788.375 C357.26491778 794.45018 351.61430837 800.17232999 345.9140625 805.890625 C345.11049316 806.69878662 344.30692383 807.50694824 343.47900391 808.33959961 C338.63895124 813.16724698 333.67095373 817.76108646 328.4765625 822.203125 C327.39353192 823.15250703 326.31145239 824.10297544 325.23046875 825.0546875 C316.28721746 832.8556847 306.99641415 840.12102786 297.4765625 847.203125 C296.74920898 847.74614258 296.02185547 848.28916016 295.27246094 848.84863281 C277.51597112 862.05418843 258.82368343 873.486483 239.4765625 884.203125 C238.3019043 884.85643799 238.3019043 884.85643799 237.10351562 885.52294922 C188.24695438 912.51443516 133.57181521 928.5818178 78.4765625 936.203125 C77.35588379 936.36828613 76.23520508 936.53344727 75.08056641 936.70361328 C36.57759543 942.20728999 -6.07546047 941.97730194 -44.5234375 936.203125 C-45.74756348 936.02620117 -46.97168945 935.84927734 -48.23291016 935.66699219 C-93.52531815 929.00007869 -137.18283784 916.55498868 -178.81689453 897.44335938 C-181.22128251 896.34158317 -183.63360939 895.26083098 -186.05078125 894.1875 C-226.66133719 875.91966044 -264.32210194 849.25712809 -297.1640625 819.34375 C-298.66129916 817.98532998 -300.17048158 816.6398708 -301.6953125 815.3125 C-307.7704925 809.99148028 -313.49264249 804.34087087 -319.2109375 798.640625 C-320.01909912 797.83705566 -320.82726074 797.03348633 -321.65991211 796.20556641 C-326.48755948 791.36551374 -331.08139896 786.39751623 -335.5234375 781.203125 C-336.47281953 780.12009442 -337.42328794 779.03801489 -338.375 777.95703125 C-346.1759972 769.01377996 -353.44134036 759.72297665 -360.5234375 750.203125 C-361.06645508 749.47577148 -361.60947266 748.74841797 -362.16894531 747.99902344 C-375.37873707 730.23683762 -386.77048255 711.53601775 -397.5234375 692.203125 C-397.92127441 691.49542969 -398.31911133 690.78773438 -398.72900391 690.05859375 C-426.33140514 640.76431846 -442.80851939 584.2793296 -449.7734375 528.390625 C-449.85652161 527.72466309 -449.93960571 527.05870117 -450.02520752 526.37255859 C-451.65621554 513.14085744 -452.67639487 500.01916336 -452.7265625 486.6796875 C-452.73708397 484.80137489 -452.73708397 484.80137489 -452.74781799 482.88511658 C-452.76522841 478.86607942 -452.77225178 474.84719177 -452.7734375 470.828125 C-452.77387936 470.14379772 -452.77432121 469.45947044 -452.77477646 468.75440598 C-452.78166258 448.42645982 -452.54970101 428.35382544 -449.5234375 408.203125 C-449.34651367 406.97899902 -449.16958984 405.75487305 -448.98730469 404.49365234 C-442.32010173 359.19927782 -429.80126287 315.61497556 -410.77978516 273.95800781 C-409.67371442 271.53264788 -408.58585822 269.10023847 -407.50390625 266.6640625 C-389.22687408 226.05905115 -362.57706606 188.40404936 -332.6640625 155.5625 C-331.30564248 154.06526334 -329.9601833 152.55608092 -328.6328125 151.03125 C-323.31179278 144.95607 -317.66118337 139.23392001 -311.9609375 133.515625 C-311.15736816 132.70746338 -310.35379883 131.89930176 -309.52587891 131.06665039 C-304.6851905 126.23836891 -299.70841929 121.65660432 -294.5234375 117.203125 C-293.40158301 116.20543974 -292.28172543 115.20550365 -291.1640625 114.203125 C-281.07664268 105.23900274 -270.42466298 97.14778943 -259.5234375 89.203125 C-258.42878174 88.40044189 -258.42878174 88.40044189 -257.31201172 87.58154297 C-240.85020469 75.54926416 -223.47696747 64.98610166 -205.54345703 55.30126953 C-203.69190775 54.29471059 -201.85426353 53.2672631 -200.01953125 52.23046875 C-151.77427683 25.50073166 -96.25190112 9.750086 -41.7109375 2.953125 C-41.04497559 2.87004089 -40.37901367 2.78695679 -39.69287109 2.70135498 C-26.46116989 1.07034695 -13.33947592 0.05016785 0 0 Z " fill="#1A202C" transform="translate(481.5234375,29.796875)"/>
<path d="M0 0 C1.87824463 -0.01052147 1.87824463 -0.01052147 3.79443359 -0.02125549 C7.81351653 -0.03866658 11.83244995 -0.04568939 15.8515625 -0.046875 C16.53603706 -0.04731686 17.22051163 -0.04775871 17.92572784 -0.04821396 C38.26281397 -0.05510132 58.31153058 0.23128349 78.4765625 3.203125 C79.71712402 3.37473145 80.95768555 3.54633789 82.23583984 3.72314453 C143.20912845 12.24645621 202.60191161 32.53775495 255.4765625 64.203125 C256.38229004 64.74324219 257.28801758 65.28335938 258.22119141 65.83984375 C284.30943756 81.47700571 308.63094043 99.58139598 331.1171875 120.0625 C332.61442416 121.42092002 334.12360658 122.7663792 335.6484375 124.09375 C341.7236175 129.41476972 347.44576749 135.06537913 353.1640625 140.765625 C353.97222412 141.56919434 354.78038574 142.37276367 355.61303711 143.20068359 C360.44068448 148.04073626 365.03452396 153.00873377 369.4765625 158.203125 C370.42594453 159.28615558 371.37641294 160.36823511 372.328125 161.44921875 C380.1291222 170.39247004 387.39446536 179.68327335 394.4765625 189.203125 C395.01958008 189.93047852 395.56259766 190.65783203 396.12207031 191.40722656 C409.33186207 209.16941238 420.72360755 227.87023225 431.4765625 247.203125 C431.87439941 247.91082031 432.27223633 248.61851562 432.68212891 249.34765625 C460.28453014 298.64193154 476.76164439 355.1269204 483.7265625 411.015625 C483.85118866 412.01456787 483.85118866 412.01456787 483.97833252 413.03369141 C485.60934054 426.26539256 486.62951987 439.38708664 486.6796875 452.7265625 C486.68670181 453.9787709 486.69371613 455.23097931 486.70094299 456.52113342 C486.71835341 460.54017058 486.72537678 464.55905823 486.7265625 468.578125 C486.72700436 469.26245228 486.72744621 469.94677956 486.72790146 470.65184402 C486.73478758 490.97979018 486.50282601 511.05242456 483.4765625 531.203125 C483.29963867 532.42725098 483.12271484 533.65137695 482.94042969 534.91259766 C476.27351619 580.20500565 463.82842618 623.86252534 444.71679688 665.49658203 C443.61502067 667.90097001 442.53426848 670.31329689 441.4609375 672.73046875 C435.9438887 684.99313472 429.25738949 696.60358265 422.4765625 708.203125 C422.0031543 709.01458984 421.52974609 709.82605469 421.04199219 710.66210938 C405.61938174 736.92613669 387.11278637 761.34158901 366.6171875 783.84375 C365.25876748 785.34098666 363.9133083 786.85016908 362.5859375 788.375 C357.26491778 794.45018 351.61430837 800.17232999 345.9140625 805.890625 C345.11049316 806.69878662 344.30692383 807.50694824 343.47900391 808.33959961 C338.63895124 813.16724698 333.67095373 817.76108646 328.4765625 822.203125 C327.39353192 823.15250703 326.31145239 824.10297544 325.23046875 825.0546875 C316.28721746 832.8556847 306.99641415 840.12102786 297.4765625 847.203125 C296.74920898 847.74614258 296.02185547 848.28916016 295.27246094 848.84863281 C277.51597112 862.05418843 258.82368343 873.486483 239.4765625 884.203125 C238.3019043 884.85643799 238.3019043 884.85643799 237.10351562 885.52294922 C188.24695438 912.51443516 133.57181521 928.5818178 78.4765625 936.203125 C77.35588379 936.36828613 76.23520508 936.53344727 75.08056641 936.70361328 C36.57759543 942.20728999 -6.07546047 941.97730194 -44.5234375 936.203125 C-45.74756348 936.02620117 -46.97168945 935.84927734 -48.23291016 935.66699219 C-93.52531815 929.00007869 -137.18283784 916.55498868 -178.81689453 897.44335938 C-181.22128251 896.34158317 -183.63360939 895.26083098 -186.05078125 894.1875 C-226.66133719 875.91966044 -264.32210194 849.25712809 -297.1640625 819.34375 C-298.66129916 817.98532998 -300.17048158 816.6398708 -301.6953125 815.3125 C-307.7704925 809.99148028 -313.49264249 804.34087087 -319.2109375 798.640625 C-320.01909912 797.83705566 -320.82726074 797.03348633 -321.65991211 796.20556641 C-326.48755948 791.36551374 -331.08139896 786.39751623 -335.5234375 781.203125 C-336.47281953 780.12009442 -337.42328794 779.03801489 -338.375 777.95703125 C-346.1759972 769.01377996 -353.44134036 759.72297665 -360.5234375 750.203125 C-361.06645508 749.47577148 -361.60947266 748.74841797 -362.16894531 747.99902344 C-375.37873707 730.23683762 -386.77048255 711.53601775 -397.5234375 692.203125 C-397.92127441 691.49542969 -398.31911133 690.78773438 -398.72900391 690.05859375 C-426.33140514 640.76431846 -442.80851939 584.2793296 -449.7734375 528.390625 C-449.85652161 527.72466309 -449.93960571 527.05870117 -450.02520752 526.37255859 C-451.65621554 513.14085744 -452.67639487 500.01916336 -452.7265625 486.6796875 C-452.73708397 484.80137489 -452.73708397 484.80137489 -452.74781799 482.88511658 C-452.76522841 478.86607942 -452.77225178 474.84719177 -452.7734375 470.828125 C-452.77387936 470.14379772 -452.77432121 469.45947044 -452.77477646 468.75440598 C-452.78166258 448.42645982 -452.54970101 428.35382544 -449.5234375 408.203125 C-449.34651367 406.97899902 -449.16958984 405.75487305 -448.98730469 404.49365234 C-442.32010173 359.19927782 -429.80126287 315.61497556 -410.77978516 273.95800781 C-409.67371442 271.53264788 -408.58585822 269.10023847 -407.50390625 266.6640625 C-389.22687408 226.05905115 -362.57706606 188.40404936 -332.6640625 155.5625 C-331.30564248 154.06526334 -329.9601833 152.55608092 -328.6328125 151.03125 C-323.31179278 144.95607 -317.66118337 139.23392001 -311.9609375 133.515625 C-311.15736816 132.70746338 -310.35379883 131.89930176 -309.52587891 131.06665039 C-304.6851905 126.23836891 -299.70841929 121.65660432 -294.5234375 117.203125 C-293.40158301 116.20543974 -292.28172543 115.20550365 -291.1640625 114.203125 C-281.07664268 105.23900274 -270.42466298 97.14778943 -259.5234375 89.203125 C-258.42878174 88.40044189 -258.42878174 88.40044189 -257.31201172 87.58154297 C-240.85020469 75.54926416 -223.47696747 64.98610166 -205.54345703 55.30126953 C-203.69190775 54.29471059 -201.85426353 53.2672631 -200.01953125 52.23046875 C-151.77427683 25.50073166 -96.25190112 9.750086 -41.7109375 2.953125 C-41.04497559 2.87004089 -40.37901367 2.78695679 -39.69287109 2.70135498 C-26.46116989 1.07034695 -13.33947592 0.05016785 0 0 Z M-32.5234375 40.203125 C-33.6160791 40.32671387 -34.7087207 40.45030273 -35.83447266 40.57763672 C-82.7927647 45.95006647 -127.97705648 59.74349843 -170.5234375 80.203125 C-171.37421875 80.60466797 -172.225 81.00621094 -173.1015625 81.41992188 C-206.31707656 97.11373001 -236.82543986 118.16188548 -264.5234375 142.203125 C-265.235 142.81414062 -265.9465625 143.42515625 -266.6796875 144.0546875 C-268.64395597 145.75329671 -270.58700282 147.47285066 -272.5234375 149.203125 C-273.36648438 149.95335937 -274.20953125 150.70359375 -275.078125 151.4765625 C-281.32963376 157.11816797 -287.3708413 162.94690907 -293.3359375 168.890625 C-294.39349243 169.9412915 -294.39349243 169.9412915 -295.47241211 171.01318359 C-300.02633552 175.58053091 -304.32679249 180.30714727 -308.5234375 185.203125 C-309.3690625 186.16734375 -310.2146875 187.1315625 -311.0859375 188.125 C-335.7145118 216.70046121 -355.5483263 248.61590787 -372.5234375 282.203125 C-372.89710449 282.93966309 -373.27077148 283.67620117 -373.65576172 284.43505859 C-392.11641076 321.1707781 -404.63122595 362.20854188 -410.0703125 402.97021484 C-410.53780351 406.30562215 -411.09009036 409.62008959 -411.6484375 412.94140625 C-414.51218727 431.27601624 -414.92804085 449.5369413 -414.95689392 468.07078552 C-414.96086152 470.04040535 -414.97006472 472.01001241 -414.97937012 473.97961426 C-415.03477133 491.91761205 -413.93622632 509.42852521 -411.5234375 527.203125 C-411.41657623 528.00574768 -411.30971497 528.80837036 -411.19961548 529.63531494 C-410.6051476 534.04499958 -409.934173 538.43786189 -409.2109375 542.828125 C-408.89564087 544.75350098 -408.89564087 544.75350098 -408.57397461 546.71777344 C-405.40890601 565.61976793 -400.73211818 584.07932855 -394.5234375 602.203125 C-394.17297363 603.23775879 -393.82250977 604.27239258 -393.46142578 605.33837891 C-387.66231269 622.36237417 -381.13201565 638.90665802 -373.5234375 655.203125 C-373.12721191 656.05745117 -372.73098633 656.91177734 -372.32275391 657.79199219 C-355.38178875 693.96614612 -332.16402021 728.08209019 -305.078125 757.40234375 C-303.11526819 759.5542831 -301.20690388 761.72991308 -299.30859375 763.9375 C-295.10661604 768.75377871 -290.61468893 773.25845619 -286.0859375 777.765625 C-285.27833984 778.57708984 -284.47074219 779.38855469 -283.63867188 780.22460938 C-278.76243697 785.09298572 -273.75634409 789.72286328 -268.5234375 794.203125 C-267.47514819 795.12860881 -266.42819558 796.05560969 -265.3828125 796.984375 C-204.54098995 850.46267681 -126.77912477 886.30976718 -46.5234375 897.203125 C-44.49214835 897.49191226 -42.46089841 897.78097548 -40.4296875 898.0703125 C-38.4403714 898.34568742 -36.45079608 898.61919774 -34.4609375 898.890625 C-33.5939624 899.01026611 -32.7269873 899.12990723 -31.83374023 899.25317383 C-16.66555947 901.22071416 -1.48885084 901.38957518 13.7824707 901.38842773 C17.00941354 901.390605 20.23600824 901.40880622 23.46289062 901.42773438 C43.33787229 901.48298135 62.89636302 899.86443759 82.5390625 896.890625 C83.25615387 896.78396515 83.97324524 896.6773053 84.71206665 896.56741333 C97.11917009 894.71255008 109.32013648 892.32198251 121.4765625 889.203125 C122.17185059 889.0292627 122.86713867 888.85540039 123.58349609 888.67626953 C150.79412547 881.86197803 177.06236557 872.01165469 202.4765625 860.203125 C203.33523926 859.80544922 204.19391602 859.40777344 205.07861328 858.99804688 C233.87744111 845.50876037 260.5566516 827.86519394 285.4765625 808.203125 C286.49363281 807.40132812 287.51070312 806.59953125 288.55859375 805.7734375 C294.4116424 801.06755289 299.96445753 796.09272208 305.45703125 790.9765625 C307.67482161 788.91571771 309.94675188 786.93088272 312.2421875 784.95703125 C317.04940613 780.76702872 321.54228435 776.28393601 326.0390625 771.765625 C326.85052734 770.95802734 327.66199219 770.15042969 328.49804688 769.31835938 C333.36590871 764.44263981 338.00404866 759.44227423 342.4765625 754.203125 C343.3221875 753.23890625 344.1678125 752.2746875 345.0390625 751.28125 C364.36035429 728.86359734 381.29804857 704.17126933 395.4765625 678.203125 C396.19489258 676.89190674 396.19489258 676.89190674 396.92773438 675.55419922 C419.64696516 633.78656266 435.86315281 588.1858769 443.4765625 541.203125 C443.647323 540.16983063 443.647323 540.16983063 443.8215332 539.11566162 C447.54275209 516.45741744 448.94065869 494.10174967 448.9140625 471.140625 C448.91419342 469.9740033 448.91432434 468.80738159 448.91445923 467.60540771 C448.87247451 446.8106905 447.57338113 426.17483005 444.6640625 405.578125 C444.49302002 404.36141113 444.32197754 403.14469727 444.14575195 401.89111328 C442.67077718 391.81046472 440.68430091 381.93573839 438.19482422 372.05957031 C437.41631859 368.96354179 436.66779822 365.86090349 435.91796875 362.7578125 C421.42673095 303.82507343 393.39960805 248.52207012 355.4765625 201.203125 C354.68121094 200.19636719 353.88585937 199.18960938 353.06640625 198.15234375 C348.35995363 192.28380407 343.37450358 186.72418788 338.25 181.22265625 C336.17937538 178.9941122 334.18383965 176.71160618 332.19921875 174.40625 C328.17325286 169.78723173 323.88122957 165.46080641 319.5390625 161.140625 C318.39920898 159.9949707 318.39920898 159.9949707 317.23632812 158.82617188 C312.47925938 154.07722793 307.57783292 149.57766494 302.4765625 145.203125 C301.42834687 144.27755773 300.38139471 143.35055686 299.3359375 142.421875 C276.84557869 122.65346331 251.74166326 105.54377608 225.4765625 91.203125 C224.60241699 90.72423828 223.72827148 90.24535156 222.82763672 89.75195312 C176.94657301 64.79525074 127.3448367 48.59356203 75.6640625 41.515625 C74.87659637 41.40685028 74.08913025 41.29807556 73.27780151 41.18600464 C54.84661072 38.66020706 36.69151228 37.99707815 18.1015625 38.015625 C16.98584869 38.01622925 15.87013489 38.0168335 14.72061157 38.01745605 C-1.12670402 38.04079001 -16.77753099 38.26586421 -32.5234375 40.203125 Z " fill="#F46464" transform="translate(481.5234375,29.796875)"/>
<path d="M0 0 C4.23898445 1.64941731 7.07623009 4.80097045 10.21356201 7.96632385 C11.14361317 8.89275339 11.14361317 8.89275339 12.09245324 9.83789867 C14.17156542 11.91136914 16.24344423 13.99191946 18.31542969 16.07250977 C19.80326333 17.55927067 21.29152977 19.04559856 22.78019714 20.53152466 C26.82368269 24.57015843 30.86088352 28.6150218 34.89686871 32.66114926 C39.11499835 36.88805041 43.33838698 41.10969079 47.56109619 45.33201599 C54.64945135 52.42130797 61.73392035 59.51446473 68.81591797 66.61010742 C77.01624094 74.82617122 85.22179423 83.03698128 93.43035769 91.24481159 C101.31476705 99.12861174 109.19632063 107.01526 117.07627106 114.90351677 C120.43595211 118.26673799 123.79648983 121.62909983 127.1576767 124.99081612 C131.10966807 128.94380816 135.05911294 132.89932686 139.00655556 136.85686111 C140.46021367 138.31345275 141.91473212 139.76918633 143.3701458 141.22402382 C145.34721037 143.20060161 147.32119686 145.18020096 149.29437256 147.16065979 C149.87917727 147.7439159 150.46398199 148.32717201 151.06650805 148.92810255 C155 152.88582125 155 152.88582125 155 154 C130.25 154 105.5 154 80 154 C80 243.1 80 332.2 80 424 C28.52 424 -22.96 424 -76 424 C-76 334.9 -76 245.8 -76 154 C-101.41 154 -126.82 154 -153 154 C-149.00148783 149.33506913 -145.03558928 144.89254755 -140.69778442 140.57752991 C-139.7896713 139.66813515 -139.7896713 139.66813515 -138.86321247 138.74036878 C-136.85274011 136.72826145 -134.83873714 134.71972731 -132.82470703 132.71118164 C-131.37534967 131.2621066 -129.92621297 129.81281083 -128.47727966 128.36331177 C-124.55644197 124.44218788 -120.63253483 120.52414883 -116.70805979 116.60666585 C-112.60231621 112.50718531 -108.49941565 108.40486138 -104.39620972 104.30284119 C-96.63169215 96.54142824 -88.86462959 88.78256735 -81.09664428 81.02462524 C-72.25068118 72.18985028 -63.40756685 63.3522262 -54.56468797 54.51436436 C-36.3796216 36.3397427 -18.19098942 18.16869313 0 0 Z " fill="#CFCCE0" transform="translate(499,346)"/>
<path d="M0 0 C1.96450321 -0.00505075 3.92900181 -0.01228366 5.8934899 -0.02149814 C11.26858504 -0.04037206 16.64322324 -0.02821387 22.01830661 -0.01077521 C27.82414865 0.00262172 33.62992484 -0.01284671 39.4357605 -0.02459717 C50.8005047 -0.04296103 62.16507679 -0.03446956 73.52981561 -0.01650894 C82.76808443 -0.00247367 92.00630658 0.00140785 101.24458504 -0.00195122 C102.56027771 -0.00242866 103.87597038 -0.0029061 105.23153253 -0.00339801 C107.23436291 -0.00415635 109.23719328 -0.00493617 111.24002363 -0.0057539 C136.25161562 -0.01582971 161.26311551 0.002407 186.27468584 0.03396646 C208.4774731 0.06182244 230.68015082 0.06679135 252.88294983 0.05177307 C258.56849378 0.04795038 264.25403774 0.0441555 269.93958187 0.04060268 C270.98964277 0.03994596 270.98964277 0.03994596 272.06091702 0.03927597 C290.63355841 0.02802604 309.20619181 0.03539262 327.77883059 0.04848343 C330.44216922 0.050333 333.10550786 0.05216251 335.76884651 0.0539875 C337.07919389 0.05489959 338.38954127 0.05581168 339.73959614 0.05675141 C348.96395944 0.06235235 358.18829499 0.05905371 367.41265678 0.05244255 C378.65817986 0.04470267 389.90358533 0.05148559 401.14908474 0.07661759 C406.88436699 0.08909764 412.61946628 0.09527715 418.3547554 0.08407593 C423.60967725 0.07400686 428.86423488 0.08255023 434.11911256 0.10565711 C436.01533258 0.11079989 437.91158545 0.10928452 439.80779099 0.10026246 C454.6830256 0.03540034 467.92328009 1.31233942 479.57362366 11.62818909 C489.84289338 22.10103464 491.30315677 34.6050742 491.16965103 48.53373718 C491.16027889 49.46306061 491.15090675 50.39238403 491.14125061 51.34986877 C491.13983801 53.32205672 491.14063626 55.29424729 491.14346313 57.26643372 C491.14489041 62.5881014 491.11561248 67.90919896 491.08059335 73.23073483 C491.04921457 78.80404666 491.04639004 84.37737335 491.04046631 89.95075989 C491.02496165 100.49027738 490.98397895 111.02953377 490.93371886 121.56893659 C490.87772012 133.57378627 490.85031243 145.5786488 490.82524168 157.58359671 C490.77306002 182.26530535 490.68141052 206.94665632 490.57362366 231.62818909 C465.16362366 231.62818909 439.75362366 231.62818909 413.57362366 231.62818909 C413.57362366 180.80818909 413.57362366 129.98818909 413.57362366 77.62818909 C286.19362366 77.62818909 158.81362366 77.62818909 27.57362366 77.62818909 C27.57362366 128.44818909 27.57362366 179.26818909 27.57362366 231.62818909 C2.16362366 231.62818909 -23.24637634 231.62818909 -49.42637634 231.62818909 C-49.49413413 205.85451633 -49.54938196 180.08091584 -49.58181286 154.30717659 C-49.59727228 142.33960401 -49.61834418 130.37209077 -49.6526947 118.40455627 C-49.68262529 107.97191448 -49.70195807 97.53931565 -49.70864183 87.10663211 C-49.71254786 81.58419338 -49.72170847 76.06187758 -49.74356651 70.5394783 C-49.7639894 65.33732431 -49.77019839 60.13534343 -49.76569939 54.93315315 C-49.76652199 53.02807613 -49.77245292 51.12299307 -49.78399277 49.21795082 C-49.86946265 34.37519174 -48.86137712 22.8999955 -38.45762634 11.46412659 C-27.10271693 0.47948596 -14.90340977 -0.10114257 0 0 Z " fill="#CFCCE0" transform="translate(279.42637634277344,229.37181091308594)"/>
</svg>
